<?xml version="1.0" standalone="no"?>
<!DOCTYPE svg PUBLIC "-//W3C//DTD SVG 1.1//EN" "http://www.w3.org/Graphics/SVG/1.1/DTD/svg11.dtd" >
<svg xmlns="http://www.w3.org/2000/svg" xmlns:xlink="http://www.w3.org/1999/xlink" version="1.1">
<metadata>
Created by FontForge 20170731 at Fri Sep 20 00:58:34 2002
 By Aleksey,,,
Copyright 2002 Adobe Systems Incorporated. All rights reserved.
</metadata>
<defs>
<font id="BalticaC-Bold" horiz-adv-x="527" >
  <font-face 
    font-family="BalticaC"
    font-weight="700"
    font-stretch="normal"
    units-per-em="1000"
    panose-1="4 0 8 0 0 0 0 0 0 0"
    ascent="720"
    descent="-280"
    x-height="470"
    cap-height="669"
    bbox="-193 -280 1167 860"
    underline-thickness="50"
    underline-position="-200"
    unicode-range="U+0020-2122"
  />
<missing-glyph horiz-adv-x="233" 
 />
    <glyph glyph-name=".notdef" horiz-adv-x="233" 
 />
    <glyph glyph-name=".null" horiz-adv-x="0" 
 />
    <glyph glyph-name="nonmarkingreturn" horiz-adv-x="333" 
 />
    <glyph glyph-name="space" unicode=" " horiz-adv-x="233" 
 />
    <glyph glyph-name="space" unicode="&#xa0;" horiz-adv-x="233" 
 />
    <glyph glyph-name="exclam" unicode="!" horiz-adv-x="260" 
d="M169 193h-82l-39 476h164zM50 70q0 35 22.5 58t55.5 23q36 0 57.5 -25.5t21.5 -55.5q0 -33 -23.5 -57t-55.5 -24q-33 0 -55.5 24t-22.5 57z" />
    <glyph glyph-name="quotedbl" unicode="&#x22;" horiz-adv-x="430" 
d="M190 714l-40 -221h-60l-40 221h140zM380 714l-40 -221h-60l-40 221h140z" />
    <glyph glyph-name="numbersign" unicode="#" horiz-adv-x="1053" 
d="M641 -59h-90l35 178h-191l-34 -178h-90l35 178h-178l17 90h178l37 190h-178l18 90h177l35 177h90l-35 -177h190l35 177h90l-35 -177h178l-18 -90h-177l-37 -190h177l-17 -90h-178zM603 209l37 190h-190l-37 -190h190z" />
    <glyph glyph-name="dollar" unicode="$" horiz-adv-x="559" 
d="M438 669h53v-170h-62q-1 31 -15 57q-17 32 -50 55.5t-73 25.5v-212l98 -40q134 -54 134 -184q0 -86 -68 -146t-164 -65v-110h-49v109q-75 2 -141 59l-17 -48h-48v176h57q3 -32 14 -53q18 -36 54 -63t81 -30v247l-57 24q-139 59 -139 193q0 72 56 124.5t140 60.5v83h49
v-82q67 -4 125 -51zM242 445v190q-95 -22 -95 -92q0 -23 6 -38.5t23.5 -27.5t25.5 -15.5t35 -14.5zM291 256v-224q44 7 78 36.5t34 73.5q0 31 -16 53.5t-33 32t-43 20.5l-4.5 1.5t-3.5 1.5z" />
    <glyph glyph-name="percent" unicode="%" horiz-adv-x="799" 
d="M42 481q0 77 48.5 125.5t114.5 48.5q71 0 117 -51.5t46 -122.5q0 -79 -50 -126.5t-113 -47.5q-79 0 -121 55.5t-42 118.5zM144 481q0 -34 5 -59t12 -37.5t16.5 -20t15.5 -9t13 -1.5q60 0 60 127t-60 127q-62 0 -62 -127zM585 683l66 -18l-423 -788l-65 20zM431 67
q0 47 17 82.5t43.5 54.5t52.5 28t50 9q63 0 113 -47.5t50 -126.5t-50 -126.5t-113 -47.5q-24 0 -50 9t-52.5 28t-43.5 54.5t-17 82.5zM533 67q0 -127 62 -127q60 0 60 127t-60 127q-62 0 -62 -127z" />
    <glyph glyph-name="ampersand" unicode="&#x26;" horiz-adv-x="689" 
d="M463 -1l-23 35q-5 -4 -15 -10q-60 -36 -142 -36q-108 0 -174.5 56t-66.5 130q0 58 45.5 113t120.5 90q-74 101 -74 161q0 66 47.5 104.5t111.5 38.5q73 0 113 -40.5t40 -96.5q0 -82 -110 -145l146 -216q3 8 5.5 15.5t4.5 16.5t3.5 14.5t3 17t2.5 16.5t2 20.5t1.5 21.5
t2 26t2.5 28h128q-11 -141 -107 -247l39 -56h84v-56zM310 632q-26 0 -39.5 -24t-13.5 -54q0 -23 6.5 -42.5t15 -33t28.5 -40.5q54 30 54 106q0 34 -12 61t-39 27zM408 81l-170 251q-64 -47 -64 -129q0 -75 40 -120.5t91 -45.5q54 0 103 44z" />
    <glyph glyph-name="quotesingle" unicode="'" horiz-adv-x="240" 
d="M190 714l-40 -221h-60l-40 221h140z" />
    <glyph glyph-name="parenleft" unicode="(" horiz-adv-x="352" 
d="M288 743v-44q-61 -21 -61 -167v-456q0 -145 61 -167v-45q-52 8 -90.5 47.5t-58 87.5t-31 112.5t-14 106.5t-2.5 85t2.5 85t14 107t31 113t58 87.5t90.5 47.5z" />
    <glyph glyph-name="parenright" unicode=")" horiz-adv-x="352" 
d="M64 699v44q47 -6 83 -38.5t56.5 -77.5t34 -104.5t18 -112t4.5 -107.5t-4.5 -107.5t-18 -111.5t-34 -104t-56.5 -77.5t-83 -38.5v45q62 24 62 167v456q0 146 -62 167z" />
    <glyph glyph-name="asterisk" unicode="*" horiz-adv-x="336" 
d="M167 464l-85 -49l22 95l-74 66l99 9l38 90l39 -90l97 -9l-73 -66l21 -95z" />
    <glyph glyph-name="plus" unicode="+" 
d="M-11 330v84h232v233h84v-233h233v-84h-233v-232h-84v232h-232z" />
    <glyph glyph-name="comma" unicode="," horiz-adv-x="263" 
d="M206 151l-79 -271h-70v271h149z" />
    <glyph glyph-name="hyphen" unicode="-" horiz-adv-x="351" 
d="M48 198v90h255v-90h-255z" />
    <glyph glyph-name="hyphen" unicode="&#xad;" horiz-adv-x="351" 
d="M48 198v90h255v-90h-255z" />
    <glyph glyph-name="period" unicode="." horiz-adv-x="263" 
d="M53 70q0 35 22.5 58t55.5 23q36 0 57.5 -25.5t21.5 -55.5q0 -33 -23.5 -57t-55.5 -24q-33 0 -55.5 24t-22.5 57z" />
    <glyph glyph-name="slash" unicode="/" horiz-adv-x="540" 
d="M421 697h84l-386 -725h-84z" />
    <glyph glyph-name="zero" unicode="0" horiz-adv-x="528" 
d="M51 334q0 177 59.5 261.5t154.5 84.5q93 0 153 -84.5t60 -261.5q0 -102 -20.5 -174t-54.5 -107t-67.5 -49.5t-70.5 -14.5q-22 0 -43.5 4t-54.5 24.5t-56.5 54.5t-41.5 102t-18 160zM188 334q0 -152 11 -206q17 -90 66 -90q19 0 33 12t22 37.5t13 47.5t6.5 62t2 59t0.5 58
v7.5v6v6.5v17v43.5t-1 45t-3 48t-5.5 43.5t-9 40.5t-13.5 30.5t-19.5 22t-25.5 7q-28 0 -45 -25.5t-23.5 -77t-7.5 -83.5t-1 -90v-21z" />
    <glyph glyph-name="one" unicode="1" 
d="M338 669v-613h78v-56h-299v56h78v478l-48 -41l-35 41l148 135h78z" />
    <glyph glyph-name="two" unicode="2" 
d="M479 174v-174h-431v18l148 189q67 85 102 149t35 133q0 73 -24 107.5t-62 34.5q-28 0 -52.5 -27.5t-25.5 -97.5h-121q1 31 11.5 59.5t33 55.5t63.5 43t96 16q102 0 163 -48.5t61 -120.5q0 -47 -20.5 -95t-58 -93.5t-70 -78t-76.5 -70.5l-82 -71h252v71h58z" />
    <glyph glyph-name="three" unicode="3" 
d="M359 375q57 -14 94 -57.5t37 -109.5q0 -100 -65.5 -159.5t-164.5 -59.5q-100 0 -162.5 59.5t-60.5 146.5h118q5 -157 102 -157q88 0 88 153q0 49 -11 81.5t-30.5 46t-35.5 18.5t-37 5l-33 1v32l34 1q47 2 72 29.5t25 111.5q0 114 -75 114q-45 0 -61.5 -36.5t-19.5 -103.5
h-109q0 34 10 65.5t31.5 60t61.5 46t94 17.5q87 0 145 -42.5t58 -106.5q0 -53 -26.5 -96t-78.5 -60z" />
    <glyph glyph-name="four" unicode="4" 
d="M417 669v-428h77v-71h-77v-114h78v-56h-299v56h92v114h-255l275 499h109zM288 537l-169 -296h169v296z" />
    <glyph glyph-name="five" unicode="5" 
d="M35 192h120q2 -155 98 -155q87 0 87 196q0 32 -6 60t-28 52.5t-58 24.5h-12h-14t-14 -0.5t-16 -1.5t-16 -2.5t-18.5 -4t-19 -6t-21 -9t-21.5 -11.5v5l74 329h292l-26 -104h-218q-13 0 -20 -3t-8.5 -5t-2.5 -11.5t-2 -11.5l-30 -126q58 32 138 32q89 0 144 -59.5
t55 -137.5q0 -105 -59.5 -179.5t-165.5 -74.5q-93 0 -161.5 52t-70.5 151z" />
    <glyph glyph-name="six" unicode="6" horiz-adv-x="528" 
d="M176 406q51 61 132 61q75 0 129 -59.5t54 -156.5q0 -121 -63.5 -191.5t-155.5 -70.5q-45 0 -85 17.5t-74.5 53.5t-55 101.5t-20.5 152.5q0 54 7 103.5t24 98t43.5 84.5t68.5 58t95 22q71 0 123.5 -39t54.5 -108h-111q-13 98 -73 98q-30 0 -50 -19t-28.5 -54.5
t-11.5 -70.5t-3 -81zM180 221q0 -183 87 -183t87 180q0 41 -3 71.5t-11 61t-26 46.5t-44 16q-8 0 -16.5 -2t-22.5 -13.5t-24.5 -30t-18.5 -57t-8 -89.5z" />
    <glyph glyph-name="seven" unicode="7" 
d="M481 669l-105 -313h62l-19 -57h-63l-101 -299h-154l136 299h-96l27 57h94l89 197h-250v-67h-54v183h434z" />
    <glyph glyph-name="eight" unicode="8" 
d="M156 356q-47 19 -74 60t-27 99q0 65 53 115t156 50q102 0 155.5 -50.5t53.5 -114.5q0 -52 -24.5 -95.5t-76.5 -63.5q54 -19 87 -65.5t33 -118.5q0 -84 -67.5 -133.5t-160.5 -49.5q-91 0 -159.5 49.5t-68.5 133.5q0 66 30 114.5t90 69.5zM264 38q27 0 45.5 15t26 39
t10.5 42.5t3 35.5v29.5t-2 33.5t-7.5 40.5t-14 31.5t-24.5 26.5t-37 8.5q-20 0 -35.5 -7.5t-24.5 -23.5t-14.5 -29.5t-7 -36.5t-2 -33t-0.5 -31v-3v-3v-3q0 -19 3 -37.5t10.5 -42t25.5 -38t45 -14.5zM264 380q81 0 81 133q0 118 -81 118q-80 0 -80 -118q0 -133 80 -133z" />
    <glyph glyph-name="nine" unicode="9" horiz-adv-x="528" 
d="M352 263q-51 -61 -132 -61q-74 0 -128.5 59t-54.5 157q0 121 64 191.5t155 70.5q44 0 84 -17t75 -53.5t55.5 -101.5t20.5 -152q0 -18 -0.5 -36.5t-5.5 -57.5t-13.5 -72t-26.5 -72t-42.5 -65.5t-63 -45t-86.5 -18.5q-71 0 -123.5 39t-54.5 108h111q13 -98 73 -98
q95 0 93 225zM348 449q0 182 -87 182t-87 -180q0 -41 3 -71.5t11 -61t26 -46.5t44 -16q14 0 28 8t29 27t24 60t9 98z" />
    <glyph glyph-name="colon" unicode=":" horiz-adv-x="263" 
d="M53 70q0 35 22.5 58t55.5 23q36 0 57.5 -25.5t21.5 -55.5q0 -33 -23.5 -57t-55.5 -24q-33 0 -55.5 24t-22.5 57zM53 401q0 33 22.5 57t55.5 24q32 0 55.5 -24t23.5 -57q0 -34 -23.5 -58t-55.5 -24q-33 0 -55.5 24t-22.5 58z" />
    <glyph glyph-name="semicolon" unicode=";" horiz-adv-x="263" 
d="M202 151l-79 -271h-70v271h149zM53 401q0 32 23 56.5t56 24.5q32 0 55 -24t23 -57q0 -30 -21.5 -56t-56.5 -26q-32 0 -55.5 24t-23.5 58z" />
    <glyph glyph-name="less" unicode="&#x3c;" horiz-adv-x="700" 
d="M64 396l509 294l38 -66l-452 -261l452 -261l-38 -66l-509 294v66z" />
    <glyph glyph-name="equal" unicode="=" 
d="M-11 433v84h549v-84h-549zM-11 228v84h549v-84h-549z" />
    <glyph glyph-name="greater" unicode="&#x3e;" horiz-adv-x="700" 
d="M636 330l-509 -294l-38 66l452 261l-452 261l38 66l509 -294v-66z" />
    <glyph glyph-name="question" unicode="?" horiz-adv-x="352" 
d="M230 294l57 -42q-10 -34 -44 -52t-70 -18q-40 0 -76.5 33t-36.5 81q0 25 9 47.5t14.5 30.5t25.5 33l84 108q26 33 26 84q0 14 -16.5 23t-37.5 9q-56 0 -56 -78v-15h-85v26q0 41 43 78.5t108 37.5q70 0 111.5 -39.5t41.5 -92.5q0 -59 -56 -125l-99 -117q-23 -27 -23 -58
q0 -10 13 -17q13 -6 27 0q23 9 40 63zM96 70q0 35 22.5 58t55.5 23q36 0 57.5 -25.5t21.5 -55.5q0 -33 -23.5 -57t-55.5 -24q-33 0 -55.5 24t-22.5 57z" />
    <glyph glyph-name="at" unicode="@" horiz-adv-x="1052" 
d="M773 539l-86 -348q-13 -52 -13 -76q0 -21 18 -21q36 0 72 11.5t69.5 35.5t54.5 67t21 100q0 175 -105.5 283.5t-277.5 108.5q-115 0 -204 -56.5t-134 -145t-45 -190.5q0 -98 34 -175.5t90 -123.5t122.5 -69.5t136.5 -23.5q106 0 195 57l36 -65q-104 -62 -231 -62
q-97 0 -180.5 30.5t-146.5 88t-99 146t-36 197.5q0 202 133 332t329 130q104 0 187 -31.5t133.5 -80t83.5 -112t45.5 -122.5t12.5 -116q0 -69 -27.5 -124.5t-71.5 -88t-94 -49.5t-100 -17q-35 0 -59 8.5t-33 22.5t-12 23.5t-3 18.5v5h-1q-13 -28 -60 -48.5t-79 -20.5
q-28 0 -53.5 8.5t-51 27t-41 55.5t-15.5 88q0 144 80.5 231.5t176.5 87.5q81 0 122 -70l15 60zM605 221l38 153q7 26 -16 67.5t-73 41.5q-47 0 -86.5 -45.5t-59 -105.5t-19.5 -115q0 -117 84 -117q41 0 79.5 32t52.5 89z" />
    <glyph glyph-name="A" unicode="A" horiz-adv-x="699" 
d="M447 185h-293l-51 -129h72v-56h-203v56h75l249 613h82l274 -613h75v-56h-302v56h78zM289 522l-114 -283h250l-124 283l-3 22h-6z" />
    <glyph glyph-name="B" unicode="B" horiz-adv-x="643" 
d="M42 613v56h311q62 0 107.5 -14t69 -37.5t34 -47.5t10.5 -50q0 -67 -40 -107.5t-101 -46.5v-5q28 -1 55 -9t55.5 -25t46 -49.5t17.5 -77.5q0 -92 -68.5 -146t-168.5 -54h-328v56h78v557h-78zM263 56h58q60 0 101.5 39t41.5 101q0 21 -6.5 41.5t-22 42t-48 35t-78.5 13.5
h-46v-272zM263 384h48q58 0 92 36.5t34 86.5q0 39 -30.5 72.5t-96.5 33.5h-47v-229z" />
    <glyph glyph-name="C" unicode="C" horiz-adv-x="686" 
d="M633 672v-189h-57q-4 64 -57 103t-116 39q-39 0 -75.5 -16t-70.5 -49t-54.5 -94.5t-20.5 -143.5q0 -121 63.5 -198t171.5 -77q110 0 186 99l49 -39q-117 -118 -257 -118q-68 0 -134 22t-121 63t-89 108.5t-34 149.5q0 148 98.5 248t268.5 100q83 0 168 -60l31 52h50z" />
    <glyph glyph-name="D" unicode="D" horiz-adv-x="741" 
d="M42 669h319q172 0 265 -98t93 -237q0 -66 -22 -124.5t-65 -106t-113 -75.5t-158 -28h-319v56h78v557h-78v56zM263 613v-557h50q22 0 42.5 2t59.5 17.5t67 42.5t50 83.5t22 133.5q0 78 -22 134t-49.5 83t-67 42t-60 17t-42.5 2h-50z" />
    <glyph glyph-name="E" unicode="E" horiz-adv-x="615" 
d="M39 56h78v557h-78v56h521v-132h-54v65h-246v-219h209v74h52v-199h-52v69h-209v-260h267v76h52v-143h-540v56z" />
    <glyph glyph-name="F" unicode="F" horiz-adv-x="588" 
d="M42 56h78v557h-78v56h518v-132h-55v65h-242v-219h212v74h53v-199h-53v69h-212v-271h78v-56h-299v56z" />
    <glyph glyph-name="G" unicode="G" horiz-adv-x="770" 
d="M631 669h50v-179h-56q-51 140 -203 140q-45 0 -81.5 -13t-60 -33t-41 -49t-26 -55t-13.5 -57.5t-6 -50.5t-1 -39q0 -129 67.5 -212.5t181.5 -83.5q67 0 109 40t42 89v86h-95v55h238v-307h-47l-52 68q-37 -36 -91 -57q-59 -22 -118 -22q-97 0 -175 31t-126 83.5
t-73.5 117.5t-25.5 136q0 67 25 123t63.5 92t88 61t96 36t89.5 11q133 0 220 -53z" />
    <glyph glyph-name="H" unicode="H" horiz-adv-x="825" 
d="M263 327v-271h78v-56h-299v56h78v557h-78v56h299v-56h-78v-230h299v230h-78v56h299v-56h-78v-557h78v-56h-299v56h78v271h-299z" />
    <glyph glyph-name="I" unicode="I" horiz-adv-x="391" 
d="M267 613v-557h78v-56h-299v56h78v557h-78v56h299v-56h-78z" />
    <glyph glyph-name="J" unicode="J" horiz-adv-x="531" 
d="M184 669h308v-56h-78v-424q0 -55 -15 -95t-34 -60t-49.5 -30.5t-49 -12.5t-44.5 -2h-23.5t-34 3.5t-42.5 9t-40.5 19t-38 31.5t-24.5 47.5t-10 66.5h134q-1 -30 0.5 -49.5t7.5 -39.5t19.5 -29.5t35.5 -9.5q19 0 32.5 8t19.5 16.5t9 28.5t3.5 29.5t0.5 32.5v460h-87v56z
" />
    <glyph glyph-name="K" unicode="K" horiz-adv-x="727" 
d="M263 352l268 261h-81v56h243v-56h-85l-187 -182l232 -375h66v-56h-313v56h79l-167 274l-55 -54v-220h78v-56h-299v56h78v557h-78v56h299v-56h-78v-261z" />
    <glyph glyph-name="L" unicode="L" horiz-adv-x="560" 
d="M42 56h78v557h-78v56h299v-56h-78v-546h218v82h65v-149h-504v56z" />
    <glyph glyph-name="M" unicode="M" horiz-adv-x="979" 
d="M486 204l234 465h217v-56h-78v-557h78v-56h-295v56h78v477l-234 -473h-75l-237 473v-477h78v-56h-210v56h78v557h-78v56h211z" />
    <glyph glyph-name="N" unicode="N" horiz-adv-x="839" 
d="M42 669h212l421 -498v442h-78v56h206v-56h-78v-613h-79l-476 550v-494h78v-56h-206v56h78v557h-78v56z" />
    <glyph glyph-name="O" unicode="O" horiz-adv-x="784" 
d="M182 334q0 -143 61.5 -219.5t147.5 -76.5q92 0 151.5 78.5t59.5 217.5q0 140 -59.5 218.5t-151.5 78.5q-87 0 -148 -76.5t-61 -220.5zM17 335q0 145 109.5 245t264.5 100t265.5 -100t110.5 -245q0 -58 -24.5 -118t-69.5 -111.5t-119 -84t-163 -32.5q-155 0 -264.5 100.5
t-109.5 245.5z" />
    <glyph glyph-name="P" unicode="P" horiz-adv-x="602" 
d="M263 256v-200h80v-56h-301v56h78v557h-78v56h250q30 0 53 -1.5t60.5 -7t65 -19t54 -34.5t41 -57t14.5 -83q0 -221 -317 -211zM263 613v-307q27 -2 53.5 2.5t56.5 19.5t48.5 52t18.5 93q0 40 -14 69t-35.5 42t-46 21.5t-46 7.5t-35.5 0z" />
    <glyph glyph-name="Q" unicode="Q" horiz-adv-x="812" 
d="M406 130l72 73l86 -75q52 86 52 206q0 140 -59.5 218.5t-151.5 78.5q-87 0 -148 -76.5t-61 -220.5q0 -143 61.5 -219.5t147.5 -76.5q44 0 80 18zM649 -91l-111 102q-66 -22 -133 -22q-155 0 -264.5 100.5t-109.5 245.5t109.5 245t264.5 100q154 0 265 -100t111 -245
q0 -68 -33.5 -142t-110.5 -131l80 -78z" />
    <glyph glyph-name="R" unicode="R" horiz-adv-x="672" 
d="M42 669h319q72 -1 125 -17.5t80.5 -44t40.5 -57.5t13 -63q0 -79 -52 -125t-123 -62v-6q35 -2 49 -29l72 -140q22 -42 41 -55.5t65 -19.5v-43q-32 -17 -111 -17q-49 0 -75.5 18.5t-51.5 65.5l-87 161q-9 17 -19.5 25t-16 9t-20.5 1h-28v-214h78v-56h-299v56h78v557h-78v56
zM263 613v-290q13 1 35.5 -1.5t49.5 5t51 20t40 42t16 71.5q0 73 -40.5 113.5t-107.5 39.5h-44z" />
    <glyph glyph-name="S" unicode="S" horiz-adv-x="559" 
d="M438 669h53v-170h-62q-5 63 -52 102q-46 37 -104 37q-45 0 -85.5 -23t-40.5 -72q0 -23 6 -38.5t23.5 -27.5t25.5 -15.5t35 -14.5l152 -62q134 -54 134 -184q0 -83 -68.5 -147.5t-189.5 -64.5q-95 0 -164 59l-17 -48h-48v176h57q7 -61 53 -103t116 -42q55 0 98 30.5
t43 80.5q0 31 -16 53.5t-33 32t-43 20.5l-4.5 1.5t-3.5 1.5l-118 50q-139 59 -139 193q0 77 63 131.5t156 54.5q84 0 151 -51z" />
    <glyph glyph-name="T" unicode="T" horiz-adv-x="617" 
d="M458 0h-299v56h78v557h-161v-70h-62v126h589v-126h-62v70h-161v-557h78v-56z" />
    <glyph glyph-name="U" unicode="U" horiz-adv-x="783" 
d="M39 669h299v-56h-78v-349q0 -33 2.5 -58.5t13 -57.5t29 -53.5t53.5 -36.5t83 -15q173 0 173 221v349h-78v56h208v-56h-78v-349q0 -26 -1.5 -47t-7 -51t-16 -52.5t-30 -47t-46 -40.5t-67.5 -26.5t-92 -10.5q-47 0 -86 6.5t-67 15.5t-50.5 25.5t-36.5 30.5t-24 36t-14.5 37
t-7 39t-3 35.5t-0.5 32.5v7v359h-78v56z" />
    <glyph glyph-name="V" unicode="V" horiz-adv-x="756" 
d="M423 183l203 430h-86v56h244v-56h-86l-281 -613h-76l-294 613h-75v56h347v-56h-87z" />
    <glyph glyph-name="W" unicode="W" horiz-adv-x="1036" 
d="M-14 669h301v-56h-74l130 -417l2 -17h6l2 17l162 473h95l151 -484l1 -17h5l1 17l147 428h-73v56h208v-56h-82l-214 -613h-78l-155 482l-1 16h-5l-1 -16l-176 -482h-77l-196 613h-79v56z" />
    <glyph glyph-name="X" unicode="X" horiz-adv-x="783" 
d="M402 428l140 185h-78v56h222v-56h-80l-174 -227l242 -330h84v-56h-326v56h77l-166 229l-174 -229h73v-56h-217v56h77l206 271l-206 286h-63v56h304v-56h-77z" />
    <glyph glyph-name="Y" unicode="Y" horiz-adv-x="680" 
d="M-8 669h315v-56h-92l166 -296l2 -6h3l1 6l181 296h-92v56h224v-56h-79l-202 -332v-225h78v-56h-299v56h78v203l-205 354h-79v56z" />
    <glyph glyph-name="Z" unicode="Z" horiz-adv-x="617" 
d="M66 669h516l-350 -602h297v77h54v-144h-549l352 602h-266v-72h-54v139z" />
    <glyph glyph-name="bracketleft" unicode="[" horiz-adv-x="355" 
d="M78 -204v879h221v-75h-78v-729h78v-75h-221z" />
    <glyph glyph-name="backslash" unicode="\" horiz-adv-x="540" 
d="M119 697l386 -725h-84l-386 725h84z" />
    <glyph glyph-name="bracketright" unicode="]" horiz-adv-x="355" 
d="M277 -204h-221v75h78v729h-78v75h221v-879z" />
    <glyph glyph-name="asciicircum" unicode="^" 
d="M165 742h196l107 -146h-78l-127 109l-126 -109h-78z" />
    <glyph glyph-name="underscore" unicode="_" 
d="M0 -196v84h527v-84h-527z" />
    <glyph glyph-name="grave" unicode="`" horiz-adv-x="240" 
d="M136 714l65 -171h-63l-164 171h162z" />
    <glyph glyph-name="a" unicode="a" horiz-adv-x="546" 
d="M458 50h57v-50h-189v39q-48 -50 -129 -50q-70 0 -118 46.5t-48 114.5q0 67 48 113.5t118 46.5q81 0 129 -50v99q0 77 -65 77q-91 0 -141 -62l-53 62q77 46 192 46q46 0 81.5 -6t56 -18t34 -23.5t19 -27.5t7 -25.5t1.5 -22.5v-309zM326 87v125q-23 40 -66 40
q-33 0 -62.5 -24t-29.5 -78q0 -55 29.5 -79t62.5 -24q43 0 66 40z" />
    <glyph glyph-name="b" unicode="b" horiz-adv-x="592" 
d="M224 669v-237l-5 -22h6q30 72 123 72q83 0 145.5 -62.5t62.5 -191.5q0 -107 -57 -173t-156 -66q-53 0 -83 15.5t-54 56.5l-65 -61h-49v619h-56v50h188zM224 235v-52q1 -72 26.5 -102.5t62.5 -30.5q103 0 103 185t-103 185q-37 0 -63 -30.5t-26 -102.5v-52z" />
    <glyph glyph-name="c" unicode="c" horiz-adv-x="505" 
d="M469 470v-157h-59q-2 14 -5.5 27t-13.5 37.5t-32 40t-52 15.5q-55 0 -93 -52t-38 -160q0 -96 43.5 -143.5t99.5 -47.5t119 67l31 -49q-64 -60 -175 -60q-115 0 -186.5 69t-71.5 176q0 101 60.5 174.5t164.5 73.5q87 0 141 -46l5 -16h6l-3 17v34h59z" />
    <glyph glyph-name="d" unicode="d" horiz-adv-x="598" 
d="M374 611h-73v50h205v-611h56v-50h-165l-18 60h-6q-29 -71 -123 -71t-151 65.5t-57 173.5q0 109 52.5 181t155.5 72q93 0 123 -71h6l-5 22v179zM379 235q0 28 -0.5 46t-3.5 42t-9 39t-15.5 29.5t-25.5 21.5t-37 7q-103 0 -103 -185t103 -185q25 0 43 11.5t27 27.5t14 44
t6 48.5t1 53.5z" />
    <glyph glyph-name="e" unicode="e" horiz-adv-x="509" 
d="M480 230h-312q0 -101 43.5 -145.5t105.5 -44.5q66 0 120 90l42 -43q-48 -54 -96 -76t-115 -22q-104 0 -172 72.5t-68 180.5t67.5 174t167.5 66q99 0 158.5 -62.5t59.5 -146.5q0 -35 -1 -43zM168 281h182q4 88 -23.5 123.5t-64.5 35.5q-39 0 -67 -38t-27 -121z" />
    <glyph glyph-name="f" unicode="f" horiz-adv-x="332" 
d="M90 470v46q0 13 1 25.5t10.5 40t26.5 46.5t53 34.5t86 15.5q63 0 107 -27l-35 -78h-14q-6 23 -23 43t-38 20q-42 0 -42 -77v-89h81v-50h-81v-370h56v-50h-244v50h56v370h-56v50h56z" />
    <glyph glyph-name="g" unicode="g" horiz-adv-x="599" 
d="M403 470h160v-50h-56v-406q0 -33 -3.5 -59t-19.5 -61.5t-44 -59t-82 -40.5t-129 -17q-92 0 -155 61l58 93h14q9 -46 39.5 -79t78.5 -33q36 0 59.5 13.5t34.5 40t15 53.5t4 65v55l3 14h-6q-29 -71 -124 -71q-94 0 -151 67t-57 187q0 117 61 178t147 61q13 0 26.5 -2
t35.5 -8.5t41 -24.5t28 -45zM377 235v52q0 72 -26 102.5t-63 30.5q-103 0 -103 -185t103 -185q37 0 62.5 30.5t26.5 102.5v52z" />
    <glyph glyph-name="h" unicode="h" horiz-adv-x="616" 
d="M101 611h-65v50h197v-241l-5 -18h6q43 80 146 80q38 0 66 -12t42 -28.5t22 -43t9.5 -45.5t1.5 -45v-258h56v-50h-244v50h56v232q0 69 -14 93q-17 31 -57 31q-13 0 -25 -4t-27 -15.5t-24 -38.5t-9 -66v-232h56v-50h-244v50h56v561z" />
    <glyph glyph-name="i" unicode="i" horiz-adv-x="306" 
d="M222 470v-420h56v-50h-244v50h56v370h-56v50h188zM86 602q0 29 20.5 49.5t49.5 20.5t49.5 -20.5t20.5 -49.5t-20.5 -49.5t-49.5 -20.5t-49.5 20.5t-20.5 49.5z" />
    <glyph glyph-name="j" unicode="j" horiz-adv-x="282" 
d="M35 470h187v-520q0 -165 -146 -165q-92 0 -132 54l53 59h14q1 -72 37 -72q15 0 24 7.5t13 23t5 30t1 38.5v495h-56v50zM86 602q0 30 20.5 50t49.5 20q32 0 51 -22.5t19 -47.5t-19 -47.5t-51 -22.5q-29 0 -49.5 20t-20.5 50z" />
    <glyph glyph-name="k" unicode="k" horiz-adv-x="592" 
d="M93 619h-65v50h197v-424l178 175h-56v50h186v-50h-63l-111 -109l182 -261h48v-50h-251v50h52l-118 175l-47 -46v-129h48v-50h-236v50h56v569z" />
    <glyph glyph-name="l" unicode="l" horiz-adv-x="309" 
d="M96 619h-65v50h197v-619h56v-50h-244v50h56v569z" />
    <glyph glyph-name="m" unicode="m" horiz-adv-x="875" 
d="M220 416h5q40 66 143 66q92 0 127 -61v-9h6l1 9q54 61 145 61q38 0 66 -12.5t41.5 -28.5t21.5 -39.5t9 -36.5t1 -28v-287h50v-50h-238v50h56v273q0 97 -65 97q-84 0 -84 -124v-246h56v-50h-244v50h56v273q0 97 -64 97q-37 0 -61 -28.5t-24 -95.5v-246h56v-50h-244v50h56
v370h-56v50h188v-36z" />
    <glyph glyph-name="n" unicode="n" horiz-adv-x="608" 
d="M224 420l-4 -18h6q43 80 146 80q38 0 66 -12t42 -28.5t22 -43t9.5 -45.5t1.5 -45v-258h56v-50h-244v50h56v232q0 69 -14 93q-17 31 -57 31q-34 0 -60 -29t-26 -95v-232h56v-50h-244v50h56v370h-56v50h188v-50z" />
    <glyph glyph-name="o" unicode="o" horiz-adv-x="561" 
d="M176 235q0 -117 30 -161t71 -44q46 0 74 50.5t28 154.5q0 20 -1 39t-7 51.5t-16 55.5t-30 41t-48 18q-10 0 -19.5 -2t-25.5 -13.5t-27.5 -31.5t-20 -61t-8.5 -97zM36 235q0 102 70.5 174.5t170.5 72.5t171 -73t71 -174q0 -100 -71.5 -173.5t-170.5 -73.5t-170 73t-71 174
z" />
    <glyph glyph-name="p" unicode="p" horiz-adv-x="598" 
d="M224 -143h56v-50h-244v50h56v563h-56v50h188v-38l-4 -22h5q29 71 123 71q86 0 147 -61t61 -177q0 -120 -57 -187t-151 -67t-123 71h-5l4 -22v-181zM224 235v-52q1 -42 11 -70.5t25 -41t27.5 -17t25.5 -4.5t25 3t27 14.5t25.5 30.5t18 54.5t7.5 82.5q0 185 -103 185
q-36 0 -62 -30.5t-27 -102.5v-52z" />
    <glyph glyph-name="q" unicode="q" horiz-adv-x="598" 
d="M374 -143v181l4 22h-5q-29 -71 -123 -71t-151 67t-57 187q0 117 61 178t147 61q39 0 77 -17.5t54 -62.5l22 68h159v-50h-56v-563h56v-50h-252v50h64zM374 235v52q-1 72 -27 102.5t-62 30.5q-103 0 -103 -185t103 -185q13 0 25.5 4.5t27.5 17t25 41t11 70.5v52z" />
    <glyph glyph-name="r" unicode="r" horiz-adv-x="387" 
d="M222 395h5q16 35 48 60.5t66 25.5q31 0 60 -19l-50 -107h-14q-7 48 -56 48q-54 0 -54 -129v-224h64v-50h-252v50h56v370h-56v50h188v-57z" />
    <glyph glyph-name="s" unicode="s" horiz-adv-x="459" 
d="M335 470h61v-143h-61q5 46 -23 79q-27 34 -75 34q-45 0 -65.5 -17t-20.5 -38q0 -13 5.5 -23t18.5 -18.5t21.5 -13t29 -13t26.5 -11.5q10 -4 33 -14t31.5 -14t26 -12.5t24.5 -13.5t19 -14.5t16.5 -17.5t10.5 -19.5t8 -24.5t2 -28q0 -55 -32 -93.5t-71.5 -52.5t-81.5 -14
q-76 0 -117 44l-5 11h-6l4 -13v-30h-59v157h59q-3 -62 34.5 -92t89.5 -30q38 0 59.5 17t21.5 42q0 28 -23.5 44t-96.5 47q-12 5 -19 8q-29 12 -44 20t-39 25t-35.5 42t-11.5 58q0 59 41.5 101t124.5 42q73 0 113 -37l4 -9h5l-3 12v23z" />
    <glyph glyph-name="t" unicode="t" horiz-adv-x="370" 
d="M98 605l132 47v-182h82v-50h-82v-322q0 -45 8 -53q5 -6 15 -6q30 0 35 66l54 -35q-27 -81 -129 -81q-115 0 -115 127v304h-62v50h62v135z" />
    <glyph glyph-name="u" unicode="u" horiz-adv-x="608" 
d="M39 470h188v-294q0 -16 0.5 -25.5t2 -27t6.5 -28.5t12 -23t20 -18t30 -6q14 0 27 5.5t27.5 19.5t23 45.5t8.5 77.5v224h-56v50h188v-420h56v-50h-188v41l5 19h-6l-8 -17q-41 -54 -127 -54q-153 0 -153 187v244h-56v50z" />
    <glyph glyph-name="v" unicode="v" horiz-adv-x="544" 
d="M0 470h258v-50h-57l111 -262l3 -17h6l2 17l113 262h-55v50h163v-50h-56l-178 -420h-80l-174 420h-56v50z" />
    <glyph glyph-name="w" unicode="w" horiz-adv-x="780" 
d="M0 470h254v-50h-57l90 -235l4 -27h6l2 27l115 285h48l103 -285l4 -26h5l3 26l95 235h-54v50h162v-50h-55l-169 -420h-57l-102 268l-9 25l-3 -25l-108 -268h-59l-163 420h-55v50z" />
    <glyph glyph-name="x" unicode="x" horiz-adv-x="575" 
d="M304 312l92 108h-59v50h183v-50h-59l-127 -149l160 -221h47v-50h-259v50h55l-86 124l-106 -124h81v-50h-195v50h49l142 166l-142 204h-47v50h248v-50h-55z" />
    <glyph glyph-name="y" unicode="y" horiz-adv-x="581" 
d="M332 180l6 -32h6l5 32l100 240h-57v50h169v-50h-58l-221 -539q-19 -45 -45 -66.5t-68 -21.5q-34 0 -63 19l35 84q27 -27 52 -27q27 0 42 35l39 93l-211 423h-43v50h250v-50h-55z" />
    <glyph glyph-name="z" unicode="z" horiz-adv-x="478" 
d="M62 470h380l-231 -420h169v84h62v-135h-392v35l217 386h-144v-81h-61v131z" />
    <glyph glyph-name="braceleft" unicode="{" 
d="M219 309q64 -29 93 -74.5t29 -117.5q0 -31 -3 -61q0 -6 -1 -17.5t-1.5 -21t-0.5 -17.5q0 -82 74 -101v-56q-165 7 -165 178q0 18 2 56t2 58q0 77 -28.5 108.5t-65.5 34.5v70q94 8 94 143q0 20 -2 58t-2 56q0 50 14.5 86.5t40 55t52 27t58.5 9.5v-56q-74 -19 -74 -101
q0 -8 0.5 -17.5t1.5 -21t1 -17.5q3 -30 3 -61q0 -72 -29 -117.5t-93 -74.5v-8z" />
    <glyph glyph-name="bar" unicode="|" horiz-adv-x="540" 
d="M221 -196v1053h98v-1053h-98z" />
    <glyph glyph-name="braceright" unicode="}" 
d="M308 317q-65 29 -93.5 74t-28.5 118q0 31 3 61q3 28 3 56q0 83 -74 101v56q31 -1 57.5 -9.5t52 -27t40.5 -55t15 -86.5q0 -18 -2 -56t-2 -58q0 -77 28.5 -108.5t65.5 -34.5v-70q-40 -3 -67 -38t-27 -105q0 -20 2 -58t2 -56q0 -19 -2 -36.5t-11.5 -44t-26 -45.5t-49 -34.5
t-76.5 -17.5v56q74 18 74 101q0 28 -3 56q-3 30 -3 61q0 73 28.5 118t93.5 74v8z" />
    <glyph glyph-name="asciitilde" unicode="~" horiz-adv-x="486" 
d="M80 313l-30 18q43 113 113 113q18 0 38.5 -6.5t34.5 -13t57 -27.5q28 -14 66 -14q15 0 46 44l31 -18q-45 -117 -117 -117q-25 0 -49 9q-19 6 -59.5 28t-57.5 22q-14 0 -22 -1t-23 -10t-28 -27z" />
    <glyph glyph-name="currency" unicode="&#xa4;" horiz-adv-x="1052" 
d="M177 107l112 112q-53 77 -53 167t53 167l-112 112l67 67l111 -112q70 56 171 56t171 -56l112 112l66 -67l-112 -112q53 -77 53 -167t-53 -167l112 -112l-66 -66l-112 111q-77 -56 -171 -56t-171 56l-111 -111zM311 386q0 -88 63.5 -151.5t151.5 -63.5q89 0 152 63.5
t63 151.5t-63.5 151.5t-151.5 63.5q-61 0 -117 -35q-98 -67 -98 -180z" />
    <glyph glyph-name="section" unicode="&#xa7;" 
d="M194 454q-69 67 -69 120q0 43 39 77t107 34q24 0 48 -5.5t47 -17.5t37 -34.5t13 -52.5h-88q3 29 -14 45t-41 16q-17 0 -31.5 -8.5t-14.5 -20.5q0 -37 33 -67l140 -129q69 -64 69 -129q0 -53 -35 -89.5t-105 -75.5q7 -6 22 -19t23 -20.5t17.5 -19.5t14 -24.5t4.5 -26.5
q0 -46 -36.5 -90t-116.5 -44q-70 0 -111.5 32.5t-36.5 85.5h86q-2 -28 13.5 -48.5t47.5 -20.5q24 0 38 11.5t14 24.5q0 8 -2 16t-4.5 13t-8.5 12t-8.5 10t-11 10.5t-10.5 9.5l-147 139q-58 53 -58 112q0 57 34.5 97t101.5 77zM312 332l-101 95q-48 -32 -48 -104
q0 -29 11 -48t34 -40l98 -93q52 40 52 109q0 7 -0.5 13t-2.5 11.5t-3.5 9.5t-5.5 9.5t-5.5 8t-6.5 8t-6.5 7t-8 7.5t-7.5 7z" />
    <glyph glyph-name="copyright" unicode="&#xa9;" horiz-adv-x="819" 
d="M64 335q0 142 101.5 243.5t244.5 101.5q144 0 244.5 -101t100.5 -244t-101 -244.5t-244 -101.5q-142 0 -244 102t-102 244zM113 335q0 -123 86.5 -210.5t210.5 -87.5t210 87t86 211q0 123 -86 210t-210 87t-210.5 -87t-86.5 -210zM564 503v-118h-44q-4 35 -22.5 62.5
t-53.5 27.5q-42 0 -70.5 -39.5t-28.5 -118.5q0 -75 33 -109.5t74 -34.5q26 0 45 12.5t44 38.5l23 -37q-47 -45 -131 -45q-86 0 -139 52t-53 132q0 84 50 135t118 51q69 0 105 -36l4 -11h4l-2 12v26h44z" />
    <glyph glyph-name="guillemotleft" unicode="&#xab;" horiz-adv-x="526" 
d="M64 248l127 189h86l-124 -189l124 -189h-86zM250 248l128 189h86l-125 -189l125 -189h-86z" />
    <glyph glyph-name="logicalnot" unicode="&#xac;" horiz-adv-x="701" 
d="M76 330v84h549v-184h-90v100h-459z" />
    <glyph glyph-name="registered" unicode="&#xae;" horiz-adv-x="818" 
d="M64 335q0 142 101 243.5t243 101.5t244 -102t102 -243q0 -142 -101.5 -244t-242.5 -102q-143 0 -244.5 102t-101.5 244zM112 335q0 -123 87 -210t209 -87q124 0 211 87t87 210q0 122 -87 209.5t-211 87.5q-122 0 -209 -87.5t-87 -209.5zM253 515h175q44 0 74.5 -10.5
t44 -27.5t19 -32t5.5 -29q0 -42 -24 -64.5t-72 -38.5v-3q18 -2 26 -16l39 -77q12 -23 22.5 -30.5t36.5 -10.5v-24q-15 -7 -38 -9h-23q-17 1 -26.5 3t-21 12t-22.5 31l-48 88q-6 11 -11 15t-7 4.5t-12 0.5h-16v-118h44v-30h-165v30h43v306h-43v30zM374 485v-159h38
q25 0 46.5 19t21.5 56q0 28 -10 47t-26 26t-25.5 9t-19.5 2h-25z" />
    <glyph glyph-name="degree" unicode="&#xb0;" horiz-adv-x="526" 
d="M88 595q0 73 51 124t124 51q72 0 123.5 -51t51.5 -124q0 -72 -51.5 -123.5t-123.5 -51.5q-73 0 -124 51t-51 124zM158 595q0 -43 30.5 -74t74.5 -31q43 0 74 31t31 74q0 44 -31 74.5t-74 30.5t-74 -31t-31 -74z" />
    <glyph glyph-name="plusminus" unicode="&#xb1;" 
d="M-11 426v84h232v232h84v-232h233v-84h-233v-233h-84v233h-232zM-11 0v84h549v-84h-549z" />
    <glyph glyph-name="mu" unicode="&#xb5;" horiz-adv-x="670" 
d="M236 470v-308q0 -14 1.5 -26.5t8 -36t24.5 -37.5t45 -14q37 0 57 35.5t20 89.5v297h132v-308q0 -81 9 -102t29 -21q29 0 52 28l26 -34q-36 -44 -112 -44q-43 0 -75.5 20.5t-43.5 58.5q-41 -79 -111 -79q-44 0 -71.5 24t-36.5 60h-5v-40l34 -243h-115v680h132z" />
    <glyph glyph-name="mu" unicode="&#x3bc;" horiz-adv-x="670" 
d="M236 470v-308q0 -14 1.5 -26.5t8 -36t24.5 -37.5t45 -14q37 0 57 35.5t20 89.5v297h132v-308q0 -81 9 -102t29 -21q29 0 52 28l26 -34q-36 -44 -112 -44q-43 0 -75.5 20.5t-43.5 58.5q-41 -79 -111 -79q-44 0 -71.5 24t-36.5 60h-5v-40l34 -243h-115v680h132z" />
    <glyph glyph-name="paragraph" unicode="&#xb6;" horiz-adv-x="531" 
d="M266 -280h-84v700h-14q-70 0 -105 37t-35 89t35 89t105 37h98v-952zM374 672h84v-952h-84v952z" />
    <glyph glyph-name="periodcentered" unicode="&#xb7;" horiz-adv-x="241" 
d="M42 342q0 35 22.5 58t55.5 23q36 0 57.5 -25.5t21.5 -55.5q0 -33 -23.5 -57t-55.5 -24q-33 0 -55.5 24t-22.5 57z" />
    <glyph glyph-name="periodcentered" unicode="&#x2219;" horiz-adv-x="241" 
d="M42 342q0 35 22.5 58t55.5 23q36 0 57.5 -25.5t21.5 -55.5q0 -33 -23.5 -57t-55.5 -24q-33 0 -55.5 24t-22.5 57z" />
    <glyph glyph-name="guillemotright" unicode="&#xbb;" horiz-adv-x="526" 
d="M462 248l-127 -189h-87l125 189l-125 189h87zM275 248l-127 -189h-86l125 189l-125 189h86z" />
    <glyph glyph-name="circumflex" unicode="&#x2c6;" horiz-adv-x="0" 
d="M168 573l-30 -53q-30 15 -46.5 24t-24 14.5t-26 20t-40.5 29.5q-14 -10 -37.5 -27.5t-34.5 -25t-28.5 -17.5t-35.5 -17l-33 51q43 26 80.5 67t56.5 82h64q18 -40 56 -82t79 -66z" />
    <glyph glyph-name="tilde" unicode="&#x2dc;" horiz-adv-x="0" 
d="M-163 565l-30 18q43 113 113 113q18 0 38.5 -6.5t34.5 -13t57 -27.5q28 -14 66 -14q15 0 46 44l31 -18q-45 -117 -117 -117q-25 0 -49 9q-19 6 -59.5 28t-57.5 22q-14 0 -22 -1t-23 -10t-28 -27z" />
    <glyph glyph-name="afii10023" unicode="&#x401;" horiz-adv-x="615" 
d="M39 56h78v557h-78v56h521v-132h-54v65h-246v-219h209v74h52v-199h-52v69h-209v-260h267v76h52v-143h-540v56zM361 793q0 27 19.5 46.5t46.5 19.5t46.5 -19.5t19.5 -46.5q0 -25 -17.5 -45t-48.5 -20t-48.5 20t-17.5 45zM151 793q0 27 19.5 46.5t46.5 19.5t46.5 -19.5
t19.5 -46.5q0 -25 -17.5 -45t-48.5 -20t-48.5 20t-17.5 45z" />
    <glyph glyph-name="afii10051" unicode="&#x402;" horiz-adv-x="849" 
d="M365 333v-333h-221v56h78v557h-152v-70h-62v126h589v-126h-62v70h-170v-226q109 30 206 30q44 0 79 -3.5t59 -9.5t42 -14.5t28 -19t17 -22.5t8.5 -24.5t2.5 -26t0 -27.5v-14v-101q0 -50 -17 -86t-38 -53.5t-52 -27.5t-48.5 -11.5t-36.5 -1.5h-23.5t-34 3.5t-42.5 9
t-40.5 19t-38 31.5t-24.5 47.5t-10 66.5h134q-1 -30 0.5 -49.5t7.5 -39.5t19.5 -29.5t35.5 -9.5q19 0 32.5 8t19.5 16.5t9 28.5t3.5 29.5t0.5 32.5v109v6q0 19 -0.5 29.5t-5 28t-13.5 27t-27.5 17.5t-44.5 8q-126 0 -208 -31z" />
    <glyph glyph-name="afii10052" unicode="&#x403;" horiz-adv-x="559" 
d="M42 56h78v557h-78v56h503v-135h-65v68h-217v-546h86v-56h-307v56zM209 734l90 120h141v-43l-161 -77h-70z" />
    <glyph glyph-name="afii10053" unicode="&#x404;" horiz-adv-x="701" 
d="M476 316h-278q-4 -114 56 -194t173 -80q61 0 111 27.5t77 77.5l54 -52q-54 -64 -122 -85t-149 -21q-74 0 -136 22t-103.5 58t-70.5 84t-42 99t-13 103q0 140 94.5 232.5t242.5 92.5q124 0 199 -62l39 46h49v-190h-50q-8 23 -20 44.5t-33.5 47t-56.5 41.5t-78 16
q-57 0 -100 -24t-67.5 -63t-37.5 -80t-16 -84h278v-56z" />
    <glyph glyph-name="afii10054" unicode="&#x405;" horiz-adv-x="559" 
d="M438 669h53v-170h-62q-5 63 -52 102q-46 37 -104 37q-45 0 -85.5 -23t-40.5 -72q0 -23 6 -38.5t23.5 -27.5t25.5 -15.5t35 -14.5l152 -62q134 -54 134 -184q0 -83 -68.5 -147.5t-189.5 -64.5q-95 0 -164 59l-17 -48h-48v176h57q7 -61 53 -103t116 -42q55 0 98 30.5
t43 80.5q0 31 -16 53.5t-33 32t-43 20.5l-4.5 1.5t-3.5 1.5l-118 50q-139 59 -139 193q0 77 63 131.5t156 54.5q84 0 151 -51z" />
    <glyph glyph-name="afii10055" unicode="&#x406;" horiz-adv-x="391" 
d="M267 613v-557h78v-56h-299v56h78v557h-78v56h299v-56h-78z" />
    <glyph glyph-name="afii10056" unicode="&#x407;" horiz-adv-x="392" 
d="M268 613v-557h78v-56h-299v56h78v557h-78v56h299v-56h-78zM25 779q0 27 19.5 46.5t46.5 19.5t46.5 -19.5t19.5 -46.5t-19.5 -46t-46.5 -19t-46.5 19t-19.5 46zM235 779q0 27 19.5 46.5t46.5 19.5t46.5 -19.5t19.5 -46.5t-19.5 -46t-46.5 -19t-46.5 19t-19.5 46z" />
    <glyph glyph-name="afii10057" unicode="&#x408;" horiz-adv-x="531" 
d="M184 669h308v-56h-78v-424q0 -55 -15 -95t-34 -60t-49.5 -30.5t-49 -12.5t-44.5 -2h-23.5t-34 3.5t-42.5 9t-40.5 19t-38 31.5t-24.5 47.5t-10 66.5h134q-1 -30 0.5 -49.5t7.5 -39.5t19.5 -29.5t35.5 -9.5q19 0 32.5 8t19.5 16.5t9 28.5t3.5 29.5t0.5 32.5v460h-87v56z
" />
    <glyph glyph-name="afii10058" unicode="&#x409;" horiz-adv-x="1041" 
d="M545 56v479h-6l-338 -461q-18 -25 -32.5 -40.5t-42 -30t-59.5 -14.5t-67 13l87 109q15 -17 35 -17q30 0 65 47l353 472h-139v56h365v-56h-78v-229h85q111 0 179 -47t68 -140q0 -28 -6 -53t-24.5 -52.5t-48 -47t-82 -32t-121.5 -12.5h-271v56h78zM688 56h51q63 0 99 42
t36 98t-37 94t-110 38h-39v-272z" />
    <glyph glyph-name="afii10059" unicode="&#x40a;" horiz-adv-x="1079" 
d="M484 669h299v-56h-78v-229h85q111 0 179 -47t68 -140q0 -28 -6 -53t-24.5 -52.5t-48 -47t-82 -32t-121.5 -12.5h-271v56h78v271h-299v-271h78v-56h-299v56h78v557h-78v56h299v-56h-78v-230h299v230h-78v56zM705 56h51q63 0 99 42t36 98t-37 94t-110 38h-39v-272z" />
    <glyph glyph-name="afii10060" unicode="&#x40b;" horiz-adv-x="863" 
d="M365 333v-277h78v-56h-299v56h78v557h-152v-70h-62v126h589v-126h-62v70h-170v-226q89 29 148 29q66 0 112 -9t70 -21.5t37 -35.5t15.5 -41t2.5 -49v-204h71v-56h-292v56h78v198q0 109 -92 109q-77 0 -150 -30z" />
    <glyph glyph-name="afii10061" unicode="&#x40c;" horiz-adv-x="727" 
d="M252 352l268 261h-81v56h243v-56h-85l-187 -182l156 -277q56 -98 121 -98h18v-56q-44 -14 -81 -14q-25 0 -42 2t-45 11t-53 32t-45 60l-132 239l-55 -54v-220h78v-56h-299v56h78v557h-78v56h299v-56h-78v-261zM248 734l90 120h141v-43l-161 -77h-70z" />
    <glyph glyph-name="afii10062" unicode="&#x40e;" horiz-adv-x="644" 
d="M377 305l137 308h-77v56h207v-56h-74l-228 -515q-13 -30 -18.5 -40.5t-21 -31.5t-36 -29t-48.5 -8q-46 0 -88 22l40 92q35 -30 66 -30q41 0 58 43l10 24l-244 473h-60v56h284v-56h-79l159 -308l5 -26h5zM541 860v-17q-3 -33 -18 -54.5t-41.5 -31t-51.5 -12.5t-61 -3
q-22 0 -33.5 0.5t-35 3t-38 9t-30.5 17t-25 29t-11 42.5v17h105q-3 -9 -3 -17q0 -56 70 -56q20 0 33 2.5t25.5 15.5t12.5 38q0 5 -2 17h104z" />
    <glyph glyph-name="afii10145" unicode="&#x40f;" horiz-adv-x="812" 
d="M120 613h-78v56h299v-56h-78v-546h288v546h-78v56h299v-56h-78v-557h88v-56h-319v-175h-112v175h-309v56h78v557z" />
    <glyph glyph-name="afii10017" unicode="&#x410;" horiz-adv-x="699" 
d="M447 185h-293l-51 -129h72v-56h-203v56h75l249 613h82l274 -613h75v-56h-302v56h78zM289 522l-114 -283h250l-124 283l-3 22h-6z" />
    <glyph glyph-name="afii10018" unicode="&#x411;" horiz-adv-x="644" 
d="M120 56v557h-78v56h490v-134h-62v67h-207v-207h66q279 0 279 -187q0 -48 -13.5 -85t-39 -58.5t-51.5 -35.5t-61.5 -20t-58 -7.5t-50.5 -1.5h-292v56h78zM263 56h59q54 0 90.5 39t36.5 101q0 37 -12.5 63.5t-27.5 39.5t-38 20t-35 8t-26 1h-47v-272z" />
    <glyph glyph-name="afii10019" unicode="&#x412;" horiz-adv-x="643" 
d="M42 613v56h311q62 0 107.5 -14t69 -37.5t34 -47.5t10.5 -50q0 -67 -40 -107.5t-101 -46.5v-5q28 -1 55 -9t55.5 -25t46 -49.5t17.5 -77.5q0 -92 -68.5 -146t-168.5 -54h-328v56h78v557h-78zM263 56h58q60 0 101.5 39t41.5 101q0 21 -6.5 41.5t-22 42t-48 35t-78.5 13.5
h-46v-272zM263 384h48q58 0 92 36.5t34 86.5q0 39 -30.5 72.5t-96.5 33.5h-47v-229z" />
    <glyph glyph-name="afii10020" unicode="&#x413;" horiz-adv-x="559" 
d="M42 56h78v557h-78v56h503v-135h-65v68h-217v-546h86v-56h-307v56z" />
    <glyph glyph-name="afii10021" unicode="&#x414;" horiz-adv-x="700" 
d="M401 669l222 -613h77v-242h-105v186h-490v-186h-105v242h76l210 557h-74v56h189zM308 500l-162 -433h323l-145 434l-4 31h-6z" />
    <glyph glyph-name="afii10022" unicode="&#x415;" horiz-adv-x="615" 
d="M39 56h78v557h-78v56h521v-132h-54v65h-246v-219h209v74h52v-199h-52v69h-209v-260h267v76h52v-143h-540v56z" />
    <glyph glyph-name="afii10024" unicode="&#x416;" horiz-adv-x="1119" 
d="M414 0v56h77v227l-61 55l-143 -249l-16.5 -27.5t-19.5 -25.5t-28 -26t-36 -15.5t-50 -7.5q-68 0 -112 25v44q35 3 60 17.5t36.5 28.5t28.5 41l181 291l-181 179h-89v56h242v-56h-78l266 -258v258h-77v56h291v-56h-77v-258l266 258h-78v56h242v-56h-89l-182 -179l182 -291
q2 -3 5 -8q12 -20 19.5 -30t22 -23.5t33.5 -20t45 -8.5v-41q-44 -25 -113 -25q-31 0 -55 8t-41.5 24.5t-28 31t-24.5 38.5l-144 249l-60 -55v-227h77v-56h-291z" />
    <glyph glyph-name="afii10025" unicode="&#x417;" horiz-adv-x="589" 
d="M214 332v49h31q60 0 96.5 38.5t36.5 101.5q0 50 -36.5 76t-89.5 26q-58 0 -91.5 -36.5t-35.5 -89.5h-54v158h54l17 -38q53 63 171 63q44 0 87.5 -12.5t80 -49t36.5 -90.5q0 -53 -23 -93.5t-91 -64.5l-26 -2v-6l25 -3q78 -15 115.5 -56.5t37.5 -89.5q0 -27 -5 -53
t-23 -58.5t-48 -56t-84.5 -40t-127.5 -16.5q-111 0 -168 50v-46h-54v175h54q2 -54 43 -88t119 -34q71 0 109.5 42.5t38.5 112.5q0 52 -39 91.5t-125 39.5h-31z" />
    <glyph glyph-name="afii10026" unicode="&#x418;" horiz-adv-x="819" 
d="M260 186l299 401v26h-78v56h299v-56h-78v-557h78v-56h-299v56h78v438l-299 -402v-36h78v-56h-299v56h78v557h-78v56h299v-56h-78v-427z" />
    <glyph glyph-name="afii10027" unicode="&#x419;" horiz-adv-x="819" 
d="M260 186l299 401v26h-78v56h299v-56h-78v-557h78v-56h-299v56h78v438l-299 -402v-36h78v-56h-299v56h78v557h-78v56h299v-56h-78v-427zM581 860q3 -32 -7.5 -54.5t-27 -34.5t-43 -19t-47 -8.5t-47.5 -1.5q-22 0 -33.5 0.5t-35 3t-38 9t-30.5 17t-25 29t-11 42.5v17h105
q-3 -9 -3 -17q0 -56 70 -56q20 0 33 2.5t25.5 15.5t12.5 38q0 5 -2 17h104z" />
    <glyph glyph-name="afii10028" unicode="&#x41a;" horiz-adv-x="727" 
d="M252 352l268 261h-81v56h243v-56h-85l-187 -182l156 -277q56 -98 121 -98h18v-56q-44 -14 -81 -14q-25 0 -42 2t-45 11t-53 32t-45 60l-132 239l-55 -54v-220h78v-56h-299v56h78v557h-78v56h299v-56h-78v-261z" />
    <glyph glyph-name="afii10029" unicode="&#x41b;" horiz-adv-x="728" 
d="M343 521l-6 -27l-162 -420q-7 -18 -13.5 -30t-18.5 -26t-30 -21.5t-42 -7.5q-34 0 -71 13l48 109q21 -17 41 -17q29 0 49 47l187 472h-75v56h182l229 -613h67v-56h-290v56h77l-162 438l-4 27h-6z" />
    <glyph glyph-name="afii10030" unicode="&#x41c;" horiz-adv-x="979" 
d="M486 204l234 465h217v-56h-78v-557h78v-56h-295v56h78v477l-234 -473h-75l-237 473v-477h78v-56h-210v56h78v557h-78v56h211z" />
    <glyph glyph-name="afii10031" unicode="&#x41d;" horiz-adv-x="825" 
d="M263 327v-271h78v-56h-299v56h78v557h-78v56h299v-56h-78v-230h299v230h-78v56h299v-56h-78v-557h78v-56h-299v56h78v271h-299z" />
    <glyph glyph-name="afii10032" unicode="&#x41e;" horiz-adv-x="784" 
d="M182 334q0 -143 61.5 -219.5t147.5 -76.5q92 0 151.5 78.5t59.5 217.5q0 140 -59.5 218.5t-151.5 78.5q-87 0 -148 -76.5t-61 -220.5zM17 335q0 145 109.5 245t264.5 100t265.5 -100t110.5 -245q0 -58 -24.5 -118t-69.5 -111.5t-119 -84t-163 -32.5q-155 0 -264.5 100.5
t-109.5 245.5z" />
    <glyph glyph-name="afii10033" unicode="&#x41f;" horiz-adv-x="825" 
d="M120 613h-78v56h741v-56h-78v-557h78v-56h-299v56h78v546h-299v-546h78v-56h-299v56h78v557z" />
    <glyph glyph-name="afii10034" unicode="&#x420;" horiz-adv-x="602" 
d="M263 256v-200h80v-56h-301v56h78v557h-78v56h250q30 0 53 -1.5t60.5 -7t65 -19t54 -34.5t41 -57t14.5 -83q0 -221 -317 -211zM263 613v-307q27 -2 53.5 2.5t56.5 19.5t48.5 52t18.5 93q0 40 -14 69t-35.5 42t-46 21.5t-46 7.5t-35.5 0z" />
    <glyph glyph-name="afii10035" unicode="&#x421;" horiz-adv-x="686" 
d="M633 672v-189h-57q-4 64 -57 103t-116 39q-39 0 -75.5 -16t-70.5 -49t-54.5 -94.5t-20.5 -143.5q0 -121 63.5 -198t171.5 -77q110 0 186 99l49 -39q-117 -118 -257 -118q-68 0 -134 22t-121 63t-89 108.5t-34 149.5q0 148 98.5 248t268.5 100q83 0 168 -60l31 52h50z" />
    <glyph glyph-name="afii10036" unicode="&#x422;" horiz-adv-x="617" 
d="M458 0h-299v56h78v557h-161v-70h-62v126h589v-126h-62v70h-161v-557h78v-56z" />
    <glyph glyph-name="afii10037" unicode="&#x423;" horiz-adv-x="644" 
d="M377 305l137 308h-77v56h207v-56h-74l-228 -515q-13 -30 -18.5 -40.5t-21 -31.5t-36 -29t-48.5 -8q-46 0 -88 22l40 92q35 -30 66 -30q41 0 58 43l10 24l-244 473h-60v56h284v-56h-79l159 -308l5 -26h5z" />
    <glyph glyph-name="afii10038" unicode="&#x424;" horiz-adv-x="897" 
d="M596 -31h-295v57h78v62q-92 -3 -169 25t-127 90.5t-50 148.5q0 67 33.5 118.5t87 79t111 40.5t114.5 13v43h-78v57h295v-57h-78v-43q57 0 114.5 -13t111 -40.5t87 -79t33.5 -118.5q0 -87 -49.5 -149t-126.5 -90t-170 -25v-62h78v-57zM518 559v-425q24 -1 46 2t47.5 16
t44 35t31 63t12.5 96q0 66 -17.5 112t-47.5 66.5t-57.5 28t-58.5 6.5zM379 134v425q-30 2 -58.5 -6t-57.5 -28.5t-47 -66.5t-18 -112q0 -55 12.5 -95.5t31 -63t44 -35.5t47.5 -16t46 -2z" />
    <glyph glyph-name="afii10039" unicode="&#x425;" horiz-adv-x="783" 
d="M402 428l140 185h-78v56h222v-56h-80l-174 -227l242 -330h84v-56h-326v56h77l-166 229l-174 -229h73v-56h-217v56h77l206 271l-206 286h-63v56h304v-56h-77z" />
    <glyph glyph-name="afii10040" unicode="&#x426;" horiz-adv-x="812" 
d="M120 613h-78v56h299v-56h-78v-546h288v546h-78v56h299v-56h-78v-557h88v-242h-112v186h-628v56h78v557z" />
    <glyph glyph-name="afii10041" unicode="&#x427;" horiz-adv-x="727" 
d="M464 336v277h-78v56h299v-56h-78v-557h78v-56h-299v56h78v226q-89 -29 -148 -29q-66 0 -112 9t-70 21.5t-37 35.5t-15.5 41t-2.5 49v204h-71v56h292v-56h-78v-198q0 -109 92 -109q77 0 150 30z" />
    <glyph glyph-name="afii10042" unicode="&#x428;" horiz-adv-x="1121" 
d="M1001 56h78v-56h-1037v56h78v557h-78v56h299v-56h-78v-546h226v546h-78v56h299v-56h-78v-546h226v546h-78v56h299v-56h-78v-557z" />
    <glyph glyph-name="afii10043" unicode="&#x429;" horiz-adv-x="1122" 
d="M120 56v557h-78v56h299v-56h-78v-546h226v546h-78v56h299v-56h-78v-546h226v546h-78v56h299v-56h-78v-557h91v-243h-112v187h-938v56h78z" />
    <glyph glyph-name="afii10044" unicode="&#x42a;" horiz-adv-x="756" 
d="M249 56v546h-169v-131h-66v198h456v-56h-78v-229h95q111 0 179 -47t68 -140q0 -28 -6 -53t-24.5 -52.5t-48 -47t-82 -32t-121.5 -12.5h-281v56h78zM392 56h61q63 0 99 42t36 98t-37 94t-110 38h-49v-272z" />
    <glyph glyph-name="afii10045" unicode="&#x42b;" horiz-adv-x="979" 
d="M120 56v557h-78v56h299v-56h-78v-229h91q111 0 178.5 -50t67.5 -137q0 -197 -281 -197h-277v56h78zM263 56h57q63 0 99.5 41.5t36.5 98.5q0 48 -33.5 90t-113.5 42h-46v-272zM716 56v557h-78v56h299v-56h-78v-557h78v-56h-299v56h78z" />
    <glyph glyph-name="afii10046" unicode="&#x42c;" horiz-adv-x="616" 
d="M120 56v557h-78v56h299v-56h-78v-229h85q111 0 179 -47t68 -140q0 -28 -6 -53t-24.5 -52.5t-48 -47t-82 -32t-121.5 -12.5h-271v56h78zM263 56h51q63 0 99 42t36 98t-37 94t-110 38h-39v-272z" />
    <glyph glyph-name="afii10047" unicode="&#x42d;" horiz-adv-x="701" 
d="M226 316v56h278q-3 43 -16 84t-37.5 80t-68 63t-100.5 24q-73 0 -120.5 -43.5t-67.5 -105.5h-49v190h49l39 -46q75 62 199 62q148 0 242.5 -92.5t94.5 -232.5q0 -66 -22 -129t-64.5 -117t-114.5 -87t-164 -33q-181 0 -271 106l54 52q27 -50 77 -77.5t111 -27.5
q54 0 95.5 18.5t66.5 47t40.5 66.5t21 72.5t5.5 69.5h-278z" />
    <glyph glyph-name="afii10048" unicode="&#x42e;" horiz-adv-x="1175" 
d="M263 613v-229h134q26 141 128.5 218.5t246.5 77.5q165 0 268.5 -97t103.5 -248q0 -153 -103.5 -249.5t-268.5 -96.5q-99 0 -181 37.5t-136 116t-58 185.5h-134v-272h78v-56h-299v56h78v557h-78v56h299v-56h-78zM562 334q0 -145 61 -221t149 -76q91 0 149 78t58 219
q0 140 -58 219t-149 79q-97 0 -153.5 -83.5t-56.5 -214.5z" />
    <glyph glyph-name="afii10049" unicode="&#x42f;" horiz-adv-x="700" 
d="M580 613v-557h78v-56h-299v56h78v214q-34 4 -55 -3.5t-30 -19t-22 -37.5l-87 -169q-27 -52 -103 -52q-58 0 -119 11v56q46 2 64 15.5t42 55.5l62 108q31 53 71 59v6q-80 18 -120 65.5t-40 109.5q0 81 65 137.5t176 56.5h317v-56h-78zM437 613h-56q-58 0 -92.5 -40
t-34.5 -98q0 -88 45.5 -122.5t137.5 -29.5v290z" />
    <glyph glyph-name="afii10065" unicode="&#x430;" horiz-adv-x="546" 
d="M458 50h57v-50h-189v39q-48 -50 -129 -50q-70 0 -118 46.5t-48 114.5q0 67 48 113.5t118 46.5q81 0 129 -50v99q0 77 -65 77q-91 0 -141 -62l-53 62q77 46 192 46q46 0 81.5 -6t56 -18t34 -23.5t19 -27.5t7 -25.5t1.5 -22.5v-309zM326 87v125q-23 40 -66 40
q-33 0 -62.5 -24t-29.5 -78q0 -55 29.5 -79t62.5 -24q43 0 66 40z" />
    <glyph glyph-name="afii10066" unicode="&#x431;" horiz-adv-x="579" 
d="M423 678h70q1 -33 -8.5 -56t-24.5 -35t-40.5 -18.5t-46 -8t-50.5 -1.5q-29 0 -47.5 -1t-44.5 -5t-42.5 -11t-34.5 -20.5t-27.5 -32.5t-15 -48t-3.5 -65l7 -1q46 107 181 107q118 0 178.5 -67.5t60.5 -174.5q0 -111 -66.5 -181t-177.5 -70q-13 0 -27 1t-40.5 7.5t-49 17
t-48.5 32.5t-44.5 52t-30.5 77.5t-12 105.5q0 71 11 128.5t27.5 94.5t41.5 65t47.5 42t52 23t49 11t42.5 2q10 0 29 -0.5t29 0t22.5 2.5t20.5 9t12 19zM179 244q0 -102 31.5 -157.5t79.5 -55.5q47 0 76 54.5t29 158.5q0 96 -29 146t-76 50q-48 0 -79.5 -50.5t-31.5 -145.5z
" />
    <glyph glyph-name="afii10067" unicode="&#x432;" horiz-adv-x="554" 
d="M31 420v50h273q175 0 175 -101q0 -45 -37.5 -76.5t-91.5 -30.5v-8q26 0 52 -6t51 -19t40.5 -38.5t15.5 -59.5q0 -74 -49.5 -102.5t-134.5 -28.5h-294v50h56v370h-56zM213 50h54q59 0 82 31t23 69q0 31 -26 58t-79 27h-54v-185zM213 284h54q88 0 88 73q0 30 -21 46.5
t-57 16.5h-64v-136z" />
    <glyph glyph-name="afii10068" unicode="&#x433;" horiz-adv-x="433" 
d="M416 470v-131h-70v81h-127v-370h64v-50h-252v50h56v370h-56v50h385z" />
    <glyph glyph-name="afii10069" unicode="&#x434;" horiz-adv-x="575" 
d="M339 476l161 -426h58v-208h-96v158h-349v-158h-96v208h73l132 376h-58v50h175zM251 353l-102 -303h215l-101 303l-3 28h-6z" />
    <glyph glyph-name="afii10070" unicode="&#x435;" horiz-adv-x="509" 
d="M480 230h-312q0 -101 43.5 -145.5t105.5 -44.5q66 0 120 90l42 -43q-48 -54 -96 -76t-115 -22q-104 0 -172 72.5t-68 180.5t67.5 174t167.5 66q99 0 158.5 -62.5t59.5 -146.5q0 -35 -1 -43zM168 281h182q4 88 -23.5 123.5t-64.5 35.5q-39 0 -67 -38t-27 -121z" />
    <glyph glyph-name="afii10072" unicode="&#x436;" horiz-adv-x="857" 
d="M538 0h-222v50h57v125l-47 47l-115 -173q-40 -61 -97 -61q-2 0 -19 -0.5t-25 0t-24 3.5t-29 9v50q24 0 45.5 14.5t31.5 27t32 42.5l119 167l-118 119h-75v50h193v-50h-56l184 -183v183h-57v50h222v-50h-57v-183l184 183h-56v50h193v-50h-75l-118 -119l119 -167
q22 -30 32 -42.5t31.5 -27t45.5 -14.5v-50q-27 -12 -97 -12q-56 0 -97 61l-115 173l-47 -47v-125h57v-50z" />
    <glyph glyph-name="afii10073" unicode="&#x437;" horiz-adv-x="480" 
d="M63 470h46v-23l-5 -14l4 -1l7 11q43 39 133 39q85 0 124.5 -37t39.5 -77q0 -56 -37.5 -88t-77.5 -35l-16 -1v-5l16 -1q144 -9 144 -110q0 -18 -4.5 -34.5t-20 -36.5t-40 -34.5t-68 -24t-100.5 -9.5q-114 0 -180 65l37 69q26 -46 54.5 -65t77.5 -19q51 0 77.5 26.5
t26.5 66.5q0 89 -123 89h-6v41q66 -1 92.5 29t26.5 72q0 37 -25.5 53t-56.5 16q-41 0 -71 -24.5t-29 -74.5h-46v137z" />
    <glyph glyph-name="afii10074" unicode="&#x438;" horiz-adv-x="624" 
d="M222 166l178 249v5h-56v50h244v-50h-56v-370h56v-50h-244v50h56v291l-178 -246v-45h56v-50h-244v50h56v370h-56v50h244v-50h-56v-254z" />
    <glyph glyph-name="afii10075" unicode="&#x439;" horiz-adv-x="624" 
d="M222 166l178 249v5h-56v50h244v-50h-56v-370h56v-50h-244v50h56v291l-178 -246v-45h56v-50h-244v50h56v370h-56v50h244v-50h-56v-254zM175 649h90l-1 -16q-1 -23 15 -41t33 -18t32.5 15.5t15.5 43.5v16h90v-23q0 -39 -45.5 -68t-92.5 -29q-52 0 -94.5 31.5t-42.5 65.5v23
z" />
    <glyph glyph-name="afii10076" unicode="&#x43a;" horiz-adv-x="590" 
d="M216 247l180 173h-55v50h189v-50h-67l-104 -99l150 -236q9 -15 26 -25t32 -10h6v-50q-38 -12 -64 -12q-104 0 -155 89l-89 153l-49 -48v-132h56v-50h-244v50h56v370h-56v50h244v-50h-56v-173z" />
    <glyph glyph-name="afii10077" unicode="&#x43b;" horiz-adv-x="587" 
d="M274 353l-111 -284q-19 -49 -37 -64q-18 -16 -46 -16q-33 0 -60 13v99q18 -22 51 -22q17 0 29 5.5t20 17.5t12 20t10 26l103 278h-92v50h205l153 -426h56v-50h-250v50h58l-91 303l-3 28h-5z" />
    <glyph glyph-name="afii10078" unicode="&#x43c;" horiz-adv-x="708" 
d="M352 169l3 -20h5l3 20l133 301h176v-50h-56v-370h56v-50h-232v50h56v312l3 24h-5l-7 -24l-145 -324h-46l-147 324l-6 24h-5l2 -24v-312h56v-50h-162v50h56v370h-56v50h178z" />
    <glyph glyph-name="afii10079" unicode="&#x43d;" horiz-adv-x="624" 
d="M222 230v-180h56v-50h-244v50h56v370h-56v50h244v-50h-56v-140h178v140h-56v50h244v-50h-56v-370h56v-50h-244v50h56v180h-178z" />
    <glyph glyph-name="afii10080" unicode="&#x43e;" horiz-adv-x="561" 
d="M176 235q0 -117 30 -161t71 -44q46 0 74 50.5t28 154.5q0 20 -1 39t-7 51.5t-16 55.5t-30 41t-48 18q-10 0 -19.5 -2t-25.5 -13.5t-27.5 -31.5t-20 -61t-8.5 -97zM36 235q0 102 70.5 174.5t170.5 72.5t171 -73t71 -174q0 -100 -71.5 -173.5t-170.5 -73.5t-170 73t-71 174
z" />
    <glyph glyph-name="afii10081" unicode="&#x43f;" horiz-adv-x="629" 
d="M224 420v-370h56v-50h-244v50h56v370h-56v50h554v-50h-56v-370h56v-50h-244v50h56v370h-178z" />
    <glyph glyph-name="afii10082" unicode="&#x440;" horiz-adv-x="598" 
d="M224 -143h56v-50h-244v50h56v563h-56v50h188v-38l-4 -22h5q29 71 123 71q86 0 147 -61t61 -177q0 -120 -57 -187t-151 -67t-123 71h-5l4 -22v-181zM224 235v-52q1 -42 11 -70.5t25 -41t27.5 -17t25.5 -4.5t25 3t27 14.5t25.5 30.5t18 54.5t7.5 82.5q0 185 -103 185
q-36 0 -62 -30.5t-27 -102.5v-52z" />
    <glyph glyph-name="afii10083" unicode="&#x441;" horiz-adv-x="505" 
d="M469 470v-157h-59q-2 14 -5.5 27t-13.5 37.5t-32 40t-52 15.5q-55 0 -93 -52t-38 -160q0 -96 43.5 -143.5t99.5 -47.5t119 67l31 -49q-64 -60 -175 -60q-115 0 -186.5 69t-71.5 176q0 101 60.5 174.5t164.5 73.5q87 0 141 -46l5 -16h6l-3 17v34h59z" />
    <glyph glyph-name="afii10084" unicode="&#x442;" horiz-adv-x="501" 
d="M118 0v50h65v370h-89v-81h-72v131h454v-131h-72v81h-89v-370h65v-50h-262z" />
    <glyph glyph-name="afii10085" unicode="&#x443;" horiz-adv-x="581" 
d="M332 180l6 -32h6l5 32l100 240h-57v50h169v-50h-58l-221 -539q-19 -45 -45 -66.5t-68 -21.5q-34 0 -63 19l35 84q27 -27 52 -27q27 0 42 35l39 93l-211 423h-43v50h250v-50h-55z" />
    <glyph glyph-name="afii10086" unicode="&#x444;" horiz-adv-x="765" 
d="M437 235v-52q1 -42 9 -70.5t21 -41t23.5 -17t22.5 -4.5q87 0 87 185q0 184 -87 184q-76 0 -76 -132v-52zM326 235v52q-3 132 -76 132q-87 0 -87 -184q0 -185 87 -185q73 0 76 133v52zM267 -207v50h56v195l5 22h-6q-27 -72 -107 -72q-74 0 -127.5 62t-53.5 193
q0 117 53 177.5t128 60.5q81 0 107 -71h6l-5 23v180h-56v50h173v-231l-4 -22h5q26 71 107 71q23 0 45.5 -6t47.5 -22.5t44 -42t31.5 -69t12.5 -98.5q0 -131 -53.5 -193t-126.5 -62q-80 0 -108 72h-5l4 -22v-195h56v-50h-229z" />
    <glyph glyph-name="afii10087" unicode="&#x445;" horiz-adv-x="575" 
d="M304 312l92 108h-59v50h183v-50h-59l-127 -149l160 -221h47v-50h-259v50h55l-86 124l-106 -124h81v-50h-195v50h49l142 166l-142 204h-47v50h248v-50h-55z" />
    <glyph glyph-name="afii10088" unicode="&#x446;" horiz-adv-x="604" 
d="M371 50v370h-48v50h236v-50h-56v-370h76v-211h-99v161h-449v50h56v370h-56v50h236v-50h-48v-370h152z" />
    <glyph glyph-name="afii10089" unicode="&#x447;" horiz-adv-x="560" 
d="M344 254v166h-38v50h226v-50h-56v-370h56v-50h-252v50h64v153q-62 -31 -128 -31q-63 0 -102.5 31.5t-39.5 88.5v128h-52v50h226v-50h-42v-124q0 -33 18 -49t42 -16q38 0 78 23z" />
    <glyph glyph-name="afii10090" unicode="&#x448;" horiz-adv-x="862" 
d="M34 0v50h56v370h-56v50h236v-50h-48v-370h142v370h-48v50h228v-50h-48v-370h142v370h-48v50h236v-50h-56v-370h56v-50h-792z" />
    <glyph glyph-name="afii10091" unicode="&#x449;" horiz-adv-x="867" 
d="M34 50h56v370h-56v50h236v-50h-48v-370h142v370h-48v50h228v-50h-48v-370h142v370h-48v50h236v-50h-56v-370h77v-210h-100v160h-713v50z" />
    <glyph glyph-name="afii10092" unicode="&#x44a;" horiz-adv-x="641" 
d="M209 420h-112v-83h-69v133h377v-50h-64v-138h96q48 0 84 -14t54 -36.5t26.5 -45.5t8.5 -47q0 -54 -43.5 -96.5t-134.5 -42.5h-279v50h56v370zM341 50h18q64 0 87.5 27.5t23.5 61.5t-25.5 61.5t-87.5 27.5q-11 0 -16 -1v-177z" />
    <glyph glyph-name="afii10093" unicode="&#x44b;" horiz-adv-x="768" 
d="M552 50v370h-56v50h244v-50h-56v-370h56v-50h-244v50h56zM84 50v370h-56v50h253v-50h-65v-138h96q48 0 84 -14t54 -36.5t26.5 -45.5t8.5 -47q0 -54 -43.5 -96.5t-134.5 -42.5h-279v51zM216 50h18q64 0 87.5 27t23.5 62q0 34 -25.5 61.5t-87.5 27.5q-11 0 -16 -1v-177z
" />
    <glyph glyph-name="afii10094" unicode="&#x44c;" horiz-adv-x="522" 
d="M90 50v370h-56v50h252v-50h-64v-138h96q48 0 84 -14t54 -36.5t26.5 -45.5t8.5 -47q0 -54 -43.5 -96.5t-134.5 -42.5h-279v50h56zM222 50h18q64 0 87.5 27.5t23.5 61.5t-25.5 61.5t-87.5 27.5q-11 0 -16 -1v-177z" />
    <glyph glyph-name="afii10095" unicode="&#x44d;" horiz-adv-x="487" 
d="M172 212v49h144q0 23 -4 48t-14.5 57t-36 53t-61.5 21q-49 0 -75 -39t-26 -87h-54v156h54v-22l-6 -17l5 -3l7 14q55 40 119 40q91 0 161.5 -63t70.5 -172q0 -108 -61 -183.5t-170 -75.5q-134 0 -200 82l44 58q48 -98 128 -98q21 0 40.5 8.5t38 27.5t29.5 56.5t11 89.5
h-144z" />
    <glyph glyph-name="afii10096" unicode="&#x44e;" horiz-adv-x="823" 
d="M224 420v-138h78q19 89 85.5 144.5t152.5 55.5q101 0 171 -72.5t70 -174.5t-70.5 -174t-170.5 -72q-91 0 -164 65.5t-78 177.5h-74v-182h56v-50h-244v50h56v370h-56v50h244v-50h-56zM438 235q0 -204 102 -204q101 0 101 204q0 56 -8.5 97t-20 61t-27.5 31.5t-25.5 13.5
t-19.5 2q-28 0 -48 -18t-30 -41t-16 -55.5t-7 -51.5t-1 -39z" />
    <glyph glyph-name="afii10097" unicode="&#x44f;" horiz-adv-x="556" 
d="M475 420v-370h56v-50h-244v50h56v148h-34l-91 -150q-7 -12 -12 -19t-17 -18.5t-31.5 -17t-44.5 -5.5q-49 0 -93 17v49q9 -3 19 -3q30 0 46 10.5t22.5 28t13 36t26 37t52.5 29.5l11 2v6q-65 -9 -106.5 33.5t-41.5 103.5q0 133 182 133h287v-50h-56zM343 420h-52
q-100 0 -100 -86q0 -96 100 -96h52v182z" />
    <glyph glyph-name="afii10071" unicode="&#x451;" horiz-adv-x="509" 
d="M437 130l42 -43q-48 -54 -96 -76t-115 -22q-104 0 -172 72.5t-68 180.5t67.5 174t167.5 66q99 0 158.5 -62.5t59.5 -146.5q0 -35 -1 -43h-312q0 -101 43.5 -145.5t105.5 -44.5q66 0 120 90zM350 281q4 88 -23.5 123.5t-64.5 35.5q-39 0 -67 -38t-27 -121h182zM87 602
q0 25 19 47.5t51 22.5q29 0 49.5 -20t20.5 -50t-20.5 -50t-49.5 -20q-32 0 -51 22.5t-19 47.5zM297 602q0 25 19 47.5t51 22.5q29 0 49.5 -20t20.5 -50t-20.5 -50t-49.5 -20q-32 0 -51 22.5t-19 47.5z" />
    <glyph glyph-name="afii10099" unicode="&#x452;" horiz-adv-x="564" 
d="M105 611h-65v50h197v-97h243v-50h-243v-94l-5 -18h6q43 80 146 80q38 0 66 -12t42 -28.5t22 -43t9.5 -45.5t1.5 -45v-358q0 -165 -147 -165q-92 0 -132 54l53 59h14q1 -72 37 -72q15 0 24 7.5t13 23t5 30t1 38.5v361q0 21 -0.5 31.5t-4 30.5t-10.5 30.5t-21 19t-35 8.5
q-13 0 -25 -4t-27 -15.5t-24 -38.5t-9 -66v-232h56v-50h-244v50h56v464h-69v50h69v47z" />
    <glyph glyph-name="afii10100" unicode="&#x453;" horiz-adv-x="433" 
d="M416 470v-131h-70v81h-127v-370h64v-50h-252v50h56v370h-56v50h385zM200 714h162l-164 -171h-62z" />
    <glyph glyph-name="afii10101" unicode="&#x454;" horiz-adv-x="487" 
d="M309 212h-144q0 -52 11 -89.5t29.5 -56.5t38 -27.5t40.5 -8.5q80 0 128 98l44 -58q-65 -81 -200 -81q-51 0 -92 16.5t-66.5 43t-42.5 61.5t-23.5 69t-6.5 68q0 109 70.5 172t161.5 63q65 0 119 -40l7 -14l5 3l-5 14v26h53v-157h-54q0 48 -26 87t-75 39q-36 0 -61.5 -21
t-36 -53t-14.5 -57t-4 -48h144v-49z" />
    <glyph glyph-name="afii10102" unicode="&#x455;" horiz-adv-x="459" 
d="M335 470h61v-143h-61q5 46 -23 79q-27 34 -75 34q-45 0 -65.5 -17t-20.5 -38q0 -13 5.5 -23t18.5 -18.5t21.5 -13t29 -13t26.5 -11.5q10 -4 33 -14t31.5 -14t26 -12.5t24.5 -13.5t19 -14.5t16.5 -17.5t10.5 -19.5t8 -24.5t2 -28q0 -55 -32 -93.5t-71.5 -52.5t-81.5 -14
q-76 0 -117 44l-5 11h-6l4 -13v-30h-59v157h59q-3 -62 34.5 -92t89.5 -30q38 0 59.5 17t21.5 42q0 28 -23.5 44t-96.5 47q-12 5 -19 8q-29 12 -44 20t-39 25t-35.5 42t-11.5 58q0 59 41.5 101t124.5 42q73 0 113 -37l4 -9h5l-3 12v23z" />
    <glyph glyph-name="afii10103" unicode="&#x456;" horiz-adv-x="306" 
d="M222 470v-420h56v-50h-244v50h56v370h-56v50h188zM86 602q0 29 20.5 49.5t49.5 20.5t49.5 -20.5t20.5 -49.5t-20.5 -49.5t-49.5 -20.5t-49.5 20.5t-20.5 49.5z" />
    <glyph glyph-name="afii10104" unicode="&#x457;" horiz-adv-x="306" 
d="M222 470v-420h56v-50h-244v50h56v370h-56v50h188zM178 614q0 24 17 41.5t41 17.5q21 0 39.5 -15.5t18.5 -43.5t-18 -43t-40 -15q-24 0 -41 17.5t-17 40.5zM12 614q0 24 17 41.5t41 17.5q21 0 39.5 -15.5t18.5 -43.5t-18 -43t-40 -15q-24 0 -41 17.5t-17 40.5z" />
    <glyph glyph-name="afii10105" unicode="&#x458;" horiz-adv-x="282" 
d="M35 470h187v-520q0 -165 -146 -165q-92 0 -132 54l53 59h14q1 -72 37 -72q15 0 24 7.5t13 23t5 30t1 38.5v495h-56v50zM86 602q0 30 20.5 50t49.5 20q32 0 51 -22.5t19 -47.5t-19 -47.5t-51 -22.5q-29 0 -49.5 20t-20.5 50z" />
    <glyph glyph-name="afii10106" unicode="&#x459;" horiz-adv-x="837" 
d="M405 50v329h-17l-207 -316q-19 -29 -28.5 -41.5t-30 -25.5t-45.5 -13q-33 0 -57 13l27 99q12 -22 45 -22q17 0 30 5t25.5 18.5t16.5 19.5t17 26l176 278h-92v50h336v-50h-64v-138h96q48 0 84 -14t54 -36.5t26.5 -45.5t8.5 -47q0 -54 -43.5 -96.5t-134.5 -42.5h-279v50h56
zM537 50h18q64 0 87.5 27.5t23.5 61.5t-25.5 61.5t-87.5 27.5q-11 0 -16 -1v-177z" />
    <glyph glyph-name="afii10107" unicode="&#x45a;" horiz-adv-x="837" 
d="M344 470h252v-50h-64v-138h96q48 0 84 -14t54 -36.5t26.5 -45.5t8.5 -47q0 -54 -43.5 -96.5t-134.5 -42.5h-279v50h56v180h-178v-180h56v-50h-244v50h56v370h-56v50h244v-50h-56v-140h178v140h-56v50zM532 227v-177h38q40 0 65.5 26.5t25.5 62.5q0 88 -113 88h-16z" />
    <glyph glyph-name="afii10108" unicode="&#x45b;" horiz-adv-x="620" 
d="M105 611h-65v50h197v-97h243v-50h-243v-94l-5 -18h6q43 80 146 80q38 0 66 -12t42 -28.5t22 -43t9.5 -45.5t1.5 -45v-258h56v-50h-244v50h56v232q0 69 -14 93q-17 31 -57 31q-13 0 -25 -4t-27 -15.5t-24 -38.5t-9 -66v-232h56v-50h-244v50h56v464h-69v50h69v47z" />
    <glyph glyph-name="afii10109" unicode="&#x45c;" horiz-adv-x="590" 
d="M216 247l180 173h-55v50h189v-50h-67l-104 -99l150 -236q9 -15 26 -25t32 -10h6v-50q-38 -12 -64 -12q-104 0 -155 89l-89 153l-49 -48v-132h56v-50h-244v50h56v370h-56v50h244v-50h-56v-173zM278 714h162l-164 -171h-62z" />
    <glyph glyph-name="afii10110" unicode="&#x45e;" horiz-adv-x="581" 
d="M332 180l6 -32h6l5 32l100 240h-57v50h169v-50h-58l-221 -539q-19 -45 -45 -66.5t-68 -21.5q-34 0 -63 19l35 84q27 -27 52 -27q27 0 42 35l39 93l-211 423h-43v50h250v-50h-55zM190 649h91q-5 -30 10 -52.5t37 -22.5q17 0 32.5 15.5t15.5 43.5v16h90v-23
q0 -39 -45.5 -68t-92.5 -29q-59 0 -100.5 36.5t-37.5 83.5z" />
    <glyph glyph-name="afii10193" unicode="&#x45f;" horiz-adv-x="604" 
d="M371 50v370h-48v50h236v-50h-56v-370h76v-50h-235v-164h-98v164h-215v50h56v370h-56v50h236v-50h-48v-370h152z" />
    <glyph glyph-name="afii10050" unicode="&#x490;" horiz-adv-x="559" 
d="M42 56h78v557h-78v56h438v90h65v-157h-282v-546h86v-56h-307v56z" />
    <glyph glyph-name="afii10098" unicode="&#x491;" horiz-adv-x="433" 
d="M31 470h315v80h70v-130h-197v-370h64v-50h-252v50h56v370h-56v50z" />
    <glyph glyph-name="endash" unicode="&#x2013;" horiz-adv-x="701" 
d="M76 330v84h549v-84h-549z" />
    <glyph glyph-name="emdash" unicode="&#x2014;" horiz-adv-x="1094" 
d="M31 302v76h1032v-76h-1032z" />
    <glyph glyph-name="quoteleft" unicode="&#x2018;" horiz-adv-x="205" 
d="M28 398l79 271h70v-271h-149z" />
    <glyph glyph-name="quoteright" unicode="&#x2019;" horiz-adv-x="205" 
d="M177 669l-79 -271h-70v271h149z" />
    <glyph glyph-name="quotesinglbase" unicode="&#x201a;" horiz-adv-x="263" 
d="M206 151l-79 -271h-70v271h149z" />
    <glyph glyph-name="quotedblleft" unicode="&#x201c;" horiz-adv-x="491" 
d="M290 409l79 271h70v-271h-149zM52 409l79 271h70v-271h-149z" />
    <glyph glyph-name="quotedblright" unicode="&#x201d;" horiz-adv-x="491" 
d="M201 680l-79 -271h-70v271h149zM439 680l-79 -271h-70v271h149z" />
    <glyph glyph-name="quotedblbase" unicode="&#x201e;" horiz-adv-x="491" 
d="M201 151l-79 -271h-70v271h149zM439 151l-79 -271h-70v271h149z" />
    <glyph glyph-name="dagger" unicode="&#x2020;" horiz-adv-x="588" 
d="M224 -210v546h-182v140h182v193h140v-193h182v-140h-182v-546h-140z" />
    <glyph glyph-name="bullet" unicode="&#x2022;" horiz-adv-x="526" 
d="M123 392q0 58 40.5 99t99.5 41q58 0 99 -41t41 -99t-41 -99t-99 -41q-59 0 -99.5 41t-40.5 99z" />
    <glyph glyph-name="ellipsis" unicode="&#x2026;" horiz-adv-x="908" 
d="M83 70q0 30 21.5 55.5t57.5 25.5q33 0 55.5 -23t22.5 -58q0 -33 -22.5 -57t-55.5 -24q-32 0 -55.5 24t-23.5 57zM376 70q0 35 22.5 58t55.5 23q38 0 58.5 -25.5t20.5 -55.5q0 -32 -23 -56.5t-56 -24.5t-55.5 24t-22.5 57zM669 70q0 35 22.5 58t55.5 23t55.5 -23t22.5 -58
q0 -33 -22.5 -57t-55.5 -24t-55.5 24t-22.5 57z" />
    <glyph glyph-name="perthousand" unicode="&#x2030;" horiz-adv-x="1209" 
d="M42 481q0 77 48.5 125.5t114.5 48.5q71 0 117 -51.5t46 -122.5q0 -79 -50 -126.5t-113 -47.5q-79 0 -121 55.5t-42 118.5zM144 481q0 -34 5 -59t12 -37.5t16.5 -20t15.5 -9t13 -1.5q60 0 60 127t-60 127q-62 0 -62 -127zM585 683l66 -18l-423 -788l-65 20zM431 67
q0 47 17 82.5t43.5 54.5t52.5 28t50 9q63 0 113 -47.5t50 -126.5t-50 -126.5t-113 -47.5q-24 0 -50 9t-52.5 28t-43.5 54.5t-17 82.5zM533 67q0 -127 62 -127q60 0 60 127t-60 127q-62 0 -62 -127zM841 67q0 47 17 82.5t43.5 54.5t52.5 28t50 9q63 0 113 -47.5t50 -126.5
t-50 -126.5t-113 -47.5q-24 0 -50 9t-52.5 28t-43.5 54.5t-17 82.5zM943 67q0 -127 62 -127q60 0 60 127t-60 127q-62 0 -62 -127z" />
    <glyph glyph-name="Euro" unicode="&#x20ac;" horiz-adv-x="528" 
d="M487 542h-23q-13 90 -109 90q-67 0 -99 -57t-41 -170h223l-17 -43h-207v-30v-31h182l-18 -43h-163q6 -107 42 -164t99 -57q42 0 71.5 22t36.5 67h23l-7 -85q-44 -51 -155 -51q-112 0 -171 67t-71 201h-66l18 43h43q-1 9 -1 33v28h-60l18 43h45q15 138 72 206.5t173 68.5
q112 0 155 -49z" />
    <glyph glyph-name="trademark" unicode="&#x2122;" horiz-adv-x="1070" 
d="M380 305h-182v28h60v308h-102v-82h-44v110h354v-110h-44v82h-102v-308h60v-28zM781 440l3 -14h5l3 13l101 230h135v-28h-60v-308h60v-28h-182v28h60v290l2 17l-4 1l-6 -18l-124 -277h-15l-129 277l-5 18l-4 -1l1 -17v-290h60v-28h-146v28h60v308h-60v28h136z" />
    <glyph glyph-name="hyphenminus" horiz-adv-x="351" 
d="M48 198v90h255v-90h-255z" />
    <glyph glyph-name="quilsinglleft" horiz-adv-x="353" 
d="M70 248l127 189h86l-124 -189l124 -189h-86z" />
    <glyph glyph-name="quilsinglright" horiz-adv-x="353" 
d="M283 248l-127 -189h-86l125 189l-125 189h86z" />
    <glyph glyph-name="numero" horiz-adv-x="1051" 
d="M233 669l367 -491v435h-78v56h207v-56h-78v-613h-82l-412 537v-481h78v-56h-207v56h78v557h-78v56h205zM710 361q0 82 47 128t110 46q58 0 107 -44.5t49 -129.5q0 -68 -41.5 -121.5t-114.5 -53.5q-74 0 -115.5 53.5t-41.5 121.5zM803 361q0 -140 64 -140q63 0 63 140
q0 139 -63 139q-64 0 -64 -139zM720 110h296v-58h-296v58z" />
  </font>
</defs>
</svg>
